<svg width="33" height="35" viewBox="0 0 33 35" fill="none" xmlns="http://www.w3.org/2000/svg">
<g clip-path="url(#clip0_29_235)">
<path d="M2.53719 19.5787H14.3015V31.343C14.3015 32.5387 15.2851 33.5416 16.5001 33.5416C17.7151 33.5416 18.6986 32.5387 18.6986 31.343V19.5787H30.4629C31.6586 19.5787 32.6615 18.5952 32.6615 17.3802C32.6615 16.1652 31.6586 15.1816 30.4629 15.1816H18.6986V3.41732C18.6986 2.22161 17.7151 1.21875 16.5001 1.21875C15.2851 1.21875 14.3015 2.22161 14.3015 3.41732V15.1816H2.53719C1.34148 15.1816 0.338623 16.1652 0.338623 17.3802C0.338623 18.5952 1.34148 19.5787 2.53719 19.5787Z" fill="#1C1C1E"/>
</g>
<defs>
<clipPath id="clip0_29_235">
<rect width="32" height="33.28" fill="white" transform="translate(0.5 0.859375)"/>
</clipPath>
</defs>
</svg>
