<svg width="21" height="21" viewBox="0 0 21 21" fill="none" xmlns="http://www.w3.org/2000/svg">
<path d="M14.5367 10.2521C14.5304 10.0324 14.4488 9.84403 14.2793 9.67453L9.39509 4.89704C9.2507 4.75893 9.08119 4.68359 8.87402 4.68359C8.4534 4.68359 8.12695 5.01004 8.12695 5.43066C8.12695 5.63156 8.20857 5.81989 8.35296 5.96429L12.7475 10.2521L8.35296 14.5399C8.20857 14.6843 8.12695 14.8664 8.12695 15.0735C8.12695 15.4941 8.4534 15.8206 8.87402 15.8206C9.07492 15.8206 9.2507 15.7453 9.39509 15.6071L14.2793 10.8234C14.4551 10.6602 14.5367 10.4718 14.5367 10.2521Z" fill="#0071E3"/>
</svg>
