<svg width="26" height="37" viewBox="0 0 26 37" fill="none" xmlns="http://www.w3.org/2000/svg">
<g clip-path="url(#clip0_29_183)">
<path d="M4.69604 34.8826H21.3039C23.5982 34.8826 24.7282 33.7526 24.7282 31.2529V18.4288C24.7282 16.1688 23.8037 15.0216 21.8861 14.8333V10.6043C21.8861 4.09809 17.5543 0.964844 13 0.964844C8.44566 0.964844 4.11391 4.09809 4.11391 10.6043V14.8847C2.33326 15.1586 1.27173 16.2886 1.27173 18.4288V31.2529C1.27173 33.7526 2.40175 34.8826 4.69604 34.8826ZM7.40124 10.2961C7.40124 6.30677 9.93523 4.11521 13 4.11521C16.0476 4.11521 18.5987 6.30677 18.5987 10.2961V14.7991L7.40124 14.8162V10.2961Z" fill="black"/>
</g>
<defs>
<clipPath id="clip0_29_183">
<rect width="25" height="35.2273" fill="white" transform="translate(0.5 0.886719)"/>
</clipPath>
</defs>
</svg>
