<svg width="35" height="41" viewBox="0 0 35 41" fill="none" xmlns="http://www.w3.org/2000/svg">
<g clip-path="url(#clip0_29_138)">
<path d="M0.835519 23.5259C0.835519 30.3814 4.60226 33.0746 15.4128 38.9884C15.9025 39.2521 16.411 39.3839 16.7312 39.3839C17.0702 39.3839 17.5787 39.2521 18.0684 38.9884C28.8789 33.0935 32.6457 30.3814 32.6457 23.5259V9.26883C32.6457 7.04646 31.7793 6.25544 29.9148 5.46443C27.8242 4.57924 20.7616 2.09319 18.6899 1.41518C18.0872 1.20801 17.3715 1.07617 16.7312 1.07617C16.1097 1.07617 15.394 1.24568 14.7725 1.41518C12.7196 1.98019 5.65695 4.59807 3.56641 5.46443C1.70187 6.23661 0.835519 7.04646 0.835519 9.26883V23.5259ZM17.0702 35.3723V4.65458C17.2397 4.67341 17.428 4.72991 17.7105 4.82408C20.2531 5.82227 25.6207 7.72447 28.4457 8.74149C28.9731 8.92983 29.1049 9.21233 29.1049 9.87151V22.8103C29.1049 28.3662 26.3364 29.8729 17.8235 34.9957C17.5033 35.2028 17.2773 35.3158 17.0702 35.3723Z" fill="#FF0000"/>
</g>
<defs>
<clipPath id="clip0_29_138">
<rect width="33.75" height="40" fill="white" transform="translate(0.5 0.5)"/>
</clipPath>
</defs>
</svg>
