<svg width="63" height="62" viewBox="0 0 63 62" fill="none" xmlns="http://www.w3.org/2000/svg">
<path d="M13.1478 17.3707C12.2331 18.2465 12.2526 19.6088 13.1478 20.4651L23.1899 30.2737C23.5792 30.6629 24.1825 30.9159 24.7079 30.9159C25.934 30.9159 26.7709 30.0596 26.7709 28.853C26.7709 28.2692 26.5762 27.8021 26.1676 27.4129L22.0028 23.4038L19.0446 20.8349L23.1705 20.9906H48.4315C49.6381 20.9906 50.5139 20.1148 50.5139 18.9082C50.5139 17.7016 49.6381 16.8453 48.4315 16.8453H23.1705L19.0446 16.9815L22.0028 14.4321L26.1676 10.423C26.5762 10.0338 26.7709 9.54722 26.7709 8.96338C26.7709 7.77623 25.934 6.91992 24.7079 6.91992C24.1825 6.91992 23.5792 7.17292 23.1899 7.56215L13.1478 17.3707ZM49.8327 43.1378C50.7474 42.262 50.728 40.8997 49.8327 40.0434L39.8101 30.2348C39.4014 29.8456 38.7981 29.5926 38.2726 29.5926C37.066 29.5926 36.2291 30.4489 36.2291 31.6555C36.2291 32.2199 36.4238 32.7064 36.813 33.0956L40.9778 37.1047L43.9359 39.6542L39.8101 39.5179H14.549C13.3619 39.5179 12.4667 40.3937 12.4667 41.6003C12.4667 42.7875 13.3619 43.6632 14.549 43.6632H39.8101L43.9359 43.527L40.9778 46.0765L36.813 50.0855C36.4238 50.4747 36.2291 50.9613 36.2291 51.5257C36.2291 52.7323 37.066 53.5886 38.2726 53.5886C38.7981 53.5886 39.4014 53.3356 39.8101 52.9464L49.8327 43.1378Z" fill="#1C1C1E"/>
</svg>
