<svg width="14" height="18" viewBox="0 0 14 18" fill="none" xmlns="http://www.w3.org/2000/svg">
<g filter="url(#filter0_i_78_959)">
<path d="M13.5529 6.13681C13.4531 6.21782 11.6922 7.25653 11.6922 9.56616C11.6922 12.2376 13.9329 13.1827 14 13.2061C13.9897 13.2637 13.644 14.5005 12.8186 15.7606C12.0825 16.8695 11.3138 17.9766 10.1445 17.9766C8.97507 17.9766 8.67412 17.2655 7.32416 17.2655C6.0086 17.2655 5.54084 18 4.4712 18C3.40155 18 2.6552 16.9739 1.79708 15.7138C0.803095 14.234 0 11.9352 0 9.75338C0 6.25383 2.17369 4.39784 4.31298 4.39784C5.4497 4.39784 6.39725 5.17912 7.11092 5.17912C7.7902 5.17912 8.84953 4.35104 10.1427 4.35104C10.6328 4.35104 12.3938 4.39784 13.5529 6.13681ZM9.5288 2.86949C10.0636 2.20522 10.442 1.28353 10.442 0.361836C10.442 0.234023 10.4316 0.10441 10.4093 0C9.53912 0.0342034 8.50387 0.606661 7.87962 1.36454C7.38951 1.94779 6.93207 2.86949 6.93207 3.80378C6.93207 3.94419 6.95443 4.08461 6.96475 4.12961C7.01978 4.14041 7.1092 4.15302 7.19862 4.15302C7.97936 4.15302 8.96131 3.60576 9.5288 2.86949Z" fill="black"/>
</g>
<defs>
<filter id="filter0_i_78_959" x="0" y="0" width="14" height="18" filterUnits="userSpaceOnUse" color-interpolation-filters="sRGB">
<feFlood flood-opacity="0" result="BackgroundImageFix"/>
<feBlend mode="normal" in="SourceGraphic" in2="BackgroundImageFix" result="shape"/>
<feColorMatrix in="SourceAlpha" type="matrix" values="0 0 0 0 0 0 0 0 0 0 0 0 0 0 0 0 0 0 127 0" result="hardAlpha"/>
<feOffset/>
<feGaussianBlur stdDeviation="0.484892"/>
<feComposite in2="hardAlpha" operator="arithmetic" k2="-1" k3="1"/>
<feColorMatrix type="matrix" values="0 0 0 0 0 0 0 0 0 0 0 0 0 0 0 0 0 0 0.1 0"/>
<feBlend mode="normal" in2="shape" result="effect1_innerShadow_78_959"/>
</filter>
</defs>
</svg>
