<svg width="41" height="56" viewBox="0 0 41 56" fill="none" xmlns="http://www.w3.org/2000/svg">
<path d="M20.5 10.7C23.9216 10.7 27.2664 11.7146 30.1114 13.6156C32.9563 15.5165 35.1737 18.2184 36.4831 21.3796C37.7925 24.5407 38.1351 28.0192 37.4676 31.3751C36.8001 34.7309 35.1524 37.8135 32.733 40.2329C30.3135 42.6524 27.2309 44.3001 23.8751 44.9676C20.5192 45.6351 17.0407 45.2925 13.8796 43.9831C10.7184 42.6737 8.01653 40.4563 6.11558 37.6114C4.21464 34.7664 3.20001 31.4216 3.20001 28C3.2053 23.4134 5.02968 19.0161 8.27291 15.7729C11.5161 12.5297 15.9134 10.7053 20.5 10.7ZM20.5 8.5C16.6433 8.5 12.8731 9.64366 9.66639 11.7863C6.45963 13.929 3.96027 16.9745 2.48436 20.5377C1.00845 24.1008 0.622284 28.0216 1.3747 31.8043C2.12711 35.5869 3.9843 39.0615 6.71143 41.7886C9.43855 44.5157 12.9131 46.3729 16.6957 47.1253C20.4784 47.8777 24.3992 47.4916 27.9623 46.0157C31.5255 44.5397 34.571 42.0404 36.7137 38.8336C38.8564 35.6269 40 31.8567 40 28C40 22.8283 37.9455 17.8684 34.2886 14.2114C30.6316 10.5545 25.6717 8.5 20.5 8.5Z" fill="#6E6E73"/>
<path d="M19.75 38.0608V36.5708C17.03 36.3608 14.9 34.8608 14.4 32.5708C14.3552 32.3906 14.3284 32.2064 14.32 32.0208C14.3115 31.8965 14.3293 31.7717 14.3721 31.6546C14.4149 31.5375 14.4819 31.4307 14.5686 31.3411C14.6553 31.2516 14.7599 31.1812 14.8756 31.1347C14.9912 31.0881 15.1154 31.0664 15.24 31.0708C15.4682 31.0786 15.6868 31.1641 15.8596 31.3133C16.0325 31.4624 16.149 31.6663 16.19 31.8908C16.47 33.4308 17.76 34.5408 19.75 34.7808V28.5308H19.53C16.33 27.7708 14.71 26.3208 14.71 23.9808C14.71 21.4408 16.84 19.6208 19.71 19.3308V17.9408C19.7029 17.8383 19.7175 17.7354 19.7529 17.6388C19.7883 17.5423 19.8436 17.4544 19.9154 17.3807C19.9871 17.3071 20.0736 17.2494 20.1692 17.2115C20.2648 17.1736 20.3673 17.1564 20.47 17.1608C20.5736 17.1566 20.6769 17.1739 20.7734 17.2116C20.87 17.2493 20.9577 17.3066 21.031 17.3799C21.1042 17.4532 21.1615 17.5409 21.1992 17.6374C21.2369 17.734 21.2542 17.8373 21.25 17.9408V19.2908C23.79 19.5408 25.78 21.0108 26.25 23.0608C26.2962 23.2442 26.323 23.4319 26.33 23.6208C26.3344 23.7446 26.3129 23.8678 26.2669 23.9827C26.221 24.0977 26.1515 24.2018 26.0631 24.2883C25.9746 24.3749 25.8691 24.4421 25.7532 24.4856C25.6373 24.5291 25.5136 24.5479 25.39 24.5408C25.156 24.5456 24.9279 24.4681 24.7451 24.3219C24.5624 24.1757 24.4367 23.9701 24.39 23.7408C24.1972 23.0246 23.7849 22.3867 23.2109 21.9167C22.637 21.4468 21.9302 21.1685 21.19 21.1208V27.0008L21.6 27.0808C24.92 27.7508 26.6 29.2508 26.6 31.7708C26.6 34.5408 24.32 36.3608 21.21 36.5908V38.0608C21.2142 38.1644 21.1969 38.2677 21.1592 38.3643C21.1215 38.4608 21.0642 38.5485 20.991 38.6218C20.9177 38.6951 20.83 38.7524 20.7334 38.7901C20.6369 38.8278 20.5336 38.8451 20.43 38.8408C20.3341 38.8345 20.2403 38.8093 20.1541 38.7666C20.068 38.7239 19.9911 38.6646 19.9279 38.5921C19.8647 38.5197 19.8165 38.4354 19.786 38.3442C19.7554 38.2531 19.7432 38.1568 19.75 38.0608ZM19.75 21.1208C17.89 21.3608 16.62 22.4508 16.62 23.8608C16.62 25.2708 17.62 26.0308 19.62 26.5708H19.76L19.75 21.1208ZM21.29 34.8008C23.5 34.6008 24.75 33.4308 24.75 31.8708C24.75 30.3108 23.89 29.5808 21.75 29.0208L21.32 28.9208L21.29 34.8008Z" fill="#6E6E73"/>
</svg>
