<svg width="37" height="56" viewBox="0 0 37 56" fill="none" xmlns="http://www.w3.org/2000/svg">
<g clip-path="url(#clip0_78_925)">
<path d="M34.405 17.0633L20.405 9.48232C19.8202 9.16452 19.1651 8.99805 18.4995 8.99805C17.8339 8.99805 17.1788 9.16452 16.594 9.48232L2.594 17.0633C1.96043 17.4067 1.4314 17.9149 1.06281 18.5341C0.694219 19.1534 0.499766 19.8607 0.5 20.5813V35.4193C0.499863 36.1401 0.694466 36.8474 1.06324 37.4667C1.43201 38.086 1.96125 38.5941 2.595 38.9373L16.595 46.5183C17.1798 46.8363 17.8349 47.0029 18.5005 47.0029C19.1661 47.0029 19.8212 46.8363 20.406 46.5183L34.406 38.9373C35.0396 38.5939 35.5686 38.0858 35.9372 37.4665C36.3058 36.8473 36.5002 36.14 36.5 35.4193V20.5813C36.5001 19.8606 36.3055 19.1532 35.9368 18.5339C35.568 17.9147 35.0388 17.4066 34.405 17.0633ZM17.548 11.2413C17.8397 11.0832 18.1662 11.0003 18.498 11.0003C18.8298 11.0003 19.1563 11.0832 19.448 11.2413L33.248 18.7113L26.865 22.3563L12.443 14.0053L17.548 11.2413ZM18.5 27.1333L3.753 18.7113L10.382 15.1223L24.855 23.5003L18.5 27.1333ZM3.548 37.1783C3.23103 37.0068 2.96631 36.7527 2.78183 36.4431C2.59736 36.1335 2.49998 35.7797 2.5 35.4193V20.5813C2.50607 20.4933 2.5181 20.4057 2.536 20.3193L17.5 28.8653V44.7333L3.548 37.1783ZM34.5 35.4193C34.5 35.7797 34.4026 36.1335 34.2182 36.4431C34.0337 36.7527 33.769 37.0068 33.452 37.1783L19.5 44.7333V28.8653L34.464 20.3203C34.4819 20.4067 34.4939 20.4943 34.5 20.5823V35.4193Z" fill="#6E6E73"/>
</g>
<defs>
<clipPath id="clip0_78_925">
<rect width="36" height="56" fill="white" transform="translate(0.5)"/>
</clipPath>
</defs>
</svg>
