<svg width="41" height="56" viewBox="0 0 41 56" fill="none" xmlns="http://www.w3.org/2000/svg">
<path d="M20.5 10.7C23.9216 10.7 27.2664 11.7146 30.1114 13.6156C32.9563 15.5165 35.1737 18.2184 36.4831 21.3796C37.7925 24.5407 38.1351 28.0192 37.4676 31.3751C36.8001 34.7309 35.1524 37.8135 32.733 40.2329C30.3135 42.6524 27.2309 44.3001 23.8751 44.9676C20.5192 45.6351 17.0407 45.2925 13.8796 43.9831C10.7184 42.6737 8.01653 40.4563 6.11558 37.6114C4.21464 34.7664 3.20001 31.4216 3.20001 28C3.2053 23.4134 5.02968 19.0161 8.27291 15.7729C11.5161 12.5297 15.9134 10.7053 20.5 10.7ZM20.5 8.5C16.6433 8.5 12.8731 9.64366 9.66639 11.7863C6.45963 13.929 3.96027 16.9745 2.48436 20.5377C1.00845 24.1008 0.622284 28.0216 1.3747 31.8043C2.12711 35.5869 3.9843 39.0615 6.71143 41.7886C9.43855 44.5157 12.9131 46.3729 16.6957 47.1253C20.4784 47.8777 24.3992 47.4916 27.9623 46.0157C31.5255 44.5397 34.571 42.0404 36.7137 38.8336C38.8564 35.6269 40 31.8567 40 28C40 22.8283 37.9455 17.8684 34.2886 14.2114C30.6316 10.5545 25.6717 8.5 20.5 8.5Z" fill="#6E6E73"/>
<path d="M28.5 33H12.5C12.2348 33 11.9804 32.8946 11.7929 32.7071C11.6054 32.5196 11.5 32.2652 11.5 32C11.5 31.7348 11.6054 31.4804 11.7929 31.2929C11.9804 31.1054 12.2348 31 12.5 31H28.5C28.7652 31 29.0196 31.1054 29.2071 31.2929C29.3946 31.4804 29.5 31.7348 29.5 32C29.5 32.2652 29.3946 32.5196 29.2071 32.7071C29.0196 32.8946 28.7652 33 28.5 33Z" fill="#6E6E73"/>
<path d="M31.5 25H9.5C9.23478 25 8.98043 24.8946 8.79289 24.7071C8.60536 24.5196 8.5 24.2652 8.5 24C8.5 23.7348 8.60536 23.4804 8.79289 23.2929C8.98043 23.1054 9.23478 23 9.5 23H31.5C31.7652 23 32.0196 23.1054 32.2071 23.2929C32.3946 23.4804 32.5 23.7348 32.5 24C32.5 24.2652 32.3946 24.5196 32.2071 24.7071C32.0196 24.8946 31.7652 25 31.5 25Z" fill="#6E6E73"/>
</svg>
